HIERARCHY
ROOT Hips
{
	OFFSET 0.000000 0.000000 0.000000
	CHANNELS 6 Xposition Yposition Zposition Zrotation Yrotation Xrotation 
	JOINT LHipJoint
	{
		OFFSET 0.000000 0.000000 0.000000
		CHANNELS 3 Zrotation Yrotation Xrotation
		JOINT LeftUpLeg
		{
			OFFSET 1.363060 -1.794630 0.839290
			CHANNELS 3 Zrotation Yrotation Xrotation
			JOINT LeftLeg
			{
				OFFSET 2.448110 -6.726130 0.000000
				CHANNELS 3 Zrotation Yrotation Xrotation
				JOINT LeftFoot
				{
					OFFSET 2.562200 -7.039590 0.000000
					CHANNELS 3 Zrotation Yrotation Xrotation
					JOINT LeftToeBase
					{
						OFFSET 0.157640 -0.433110 2.322550
						CHANNELS 3 Zrotation Yrotation Xrotation
						End Site
						{
							OFFSET 0.000000 0.000000 0.000000
						}
					}
				}
			}
		}
	}
	JOINT RHipJoint
	{
		OFFSET 0.000000 0.000000 0.000000
		CHANNELS 3 Zrotation Yrotation Xrotation
		JOINT RightUpLeg
		{
			OFFSET -1.305520 -1.794630 0.839290
			CHANNELS 3 Zrotation Yrotation Xrotation
			JOINT RightLeg
			{
				OFFSET -2.542530 -6.985550 0.000000
				CHANNELS 3 Zrotation Yrotation Xrotation
				JOINT RightFoot
				{
					OFFSET -2.568260 -7.056230 0.000000
					CHANNELS 3 Zrotation Yrotation Xrotation
					JOINT RightToeBase
					{
						OFFSET -0.164730 -0.452590 2.363150
						CHANNELS 3 Zrotation Yrotation Xrotation
						End Site
						{
							OFFSET 0.000000 0.000000 0.000000
						}
					}
				}
			}
		}
	}
	JOINT LowerBack
	{
		OFFSET 0.000000 0.000000 0.000000
		CHANNELS 3 Zrotation Yrotation Xrotation
		JOINT Spine
		{
			OFFSET 0.028270 2.035590 -0.193380
			CHANNELS 3 Zrotation Yrotation Xrotation
			JOINT Spine1
			{
				OFFSET 0.056720 2.048850 -0.042750
				CHANNELS 3 Zrotation Yrotation Xrotation
				JOINT Neck
				{
					OFFSET 0.000000 0.000000 0.000000
					CHANNELS 3 Zrotation Yrotation Xrotation
					JOINT Neck1
					{
						OFFSET -0.054170 1.746240 0.172020
						CHANNELS 3 Zrotation Yrotation Xrotation
						JOINT Head
						{
							OFFSET 0.104070 1.761360 -0.123970
							CHANNELS 3 Zrotation Yrotation Xrotation
							End Site
							{
								OFFSET 0.000000 0.000000 0.000000
							}
						}
					}
				}
				JOINT LeftShoulder
				{
					OFFSET 0.000000 0.000000 0.000000
					CHANNELS 3 Zrotation Yrotation Xrotation
					JOINT LeftArm
					{
						OFFSET 3.362410 1.200890 -0.311210
						CHANNELS 3 Zrotation Yrotation Xrotation
						JOINT LeftForeArm
						{
							OFFSET 4.983000 -0.000000 -0.000000
							CHANNELS 3 Zrotation Yrotation Xrotation
							JOINT LeftHand
							{
								OFFSET 3.483560 -0.000000 -0.000000
								CHANNELS 3 Zrotation Yrotation Xrotation
								JOINT LeftFingerBase
								{
									OFFSET 0.000000 0.000000 0.000000
									CHANNELS 3 Zrotation Yrotation Xrotation
									JOINT LeftHandIndex1
									{
										OFFSET 0.715260 -0.000000 -0.000000
										CHANNELS 3 Zrotation Yrotation Xrotation
										End Site
										{
											OFFSET 0.000000 0.000000 0.000000
										}
									}
								}
								JOINT LThumb
								{
									OFFSET 0.000000 0.000000 0.000000
									CHANNELS 3 Zrotation Yrotation Xrotation
									End Site
									{
										OFFSET 0.000000 0.000000 0.000000
									}
								}
							}
						}
					}
				}
				JOINT RightShoulder
				{
					OFFSET 0.000000 0.000000 0.000000
					CHANNELS 3 Zrotation Yrotation Xrotation
					JOINT RightArm
					{
						OFFSET -3.136600 1.374050 -0.404650
						CHANNELS 3 Zrotation Yrotation Xrotation
						JOINT RightForeArm
						{
							OFFSET -5.241900 -0.000000 -0.000000
							CHANNELS 3 Zrotation Yrotation Xrotation
							JOINT RightHand
							{
								OFFSET -3.444170 -0.000000 -0.000000
								CHANNELS 3 Zrotation Yrotation Xrotation
								JOINT RightFingerBase
								{
									OFFSET 0.000000 0.000000 0.000000
									CHANNELS 3 Zrotation Yrotation Xrotation
									JOINT RightHandIndex1
									{
										OFFSET -0.622530 -0.000000 -0.000000
										CHANNELS 3 Zrotation Yrotation Xrotation
										End Site
										{
											OFFSET 0.000000 0.000000 0.000000
										}
									}
								}
								JOINT RThumb
								{
									OFFSET 0.000000 0.000000 0.000000
									CHANNELS 3 Zrotation Yrotation Xrotation
									End Site
									{
										OFFSET 0.000000 0.000000 0.000000
									}
								}
							}
						}
					}
				}
			}
		}
	}
}
MOTION
Frames: 9
Frame Time: 0.008333
-27.940066 17.188071 -5.488225 -111.079428 82.183304 -100.616224 16.813954 4.018597 -2.696319 -22.164524 3.757606 -7.052716 4.609552 17.655509 61.972814 1.849996 -1.291302 -15.936203 3.503700 -11.468900 -33.878200 -19.879570 -2.514694 -3.745625 47.039529 13.209614 -19.668910 11.165654 -14.745138 26.378534 -0.804219 1.197790 -14.371294 -1.048900 6.512800 -18.279800 12.995229 -2.326146 16.787604 1.029114 0.138888 -5.091540 -4.867756 -1.326333 -17.714720 -0.805093 -0.295572 -20.397717 0.536793 -0.532090 9.908646 -2.018500 -0.548700 10.882300 8.322643 -9.250455 0.390406 -82.690343 18.234294 47.880038 98.306401 -54.694953 -64.606856 -1.652052 1.038886 11.083493 36.508575 28.933123 19.963700 -7.125000 0.000000 0.000000 10.430200 63.062300 4.599300 -8.359479 7.770633 1.737469 77.793126 -26.923492 41.930369 -37.945317 48.791086 -15.175124 1.317794 -1.908004 -14.926352 -31.346295 -19.370438 10.211300 7.125000 0.000000 0.000000 -4.334400 -49.366000 0.467400 
-27.162734 17.164174 -5.527645 -100.122486 81.465584 -88.507730 16.597913 3.383753 -2.929864 -20.532172 3.625214 -13.707486 6.063692 19.110912 65.071678 2.058581 -2.153975 -15.677791 5.095300 -13.490300 -41.232800 -20.133124 -2.563464 -3.834011 48.860884 12.375813 -17.878292 11.050584 -14.559410 26.602035 -1.143185 4.410660 -15.928257 -0.609800 4.998000 -13.902900 13.715447 -1.296949 15.812090 1.115650 1.472125 -5.048948 -4.675712 -0.628031 -16.899503 -1.593781 -0.546663 -20.747277 0.157158 -0.654266 9.669446 -2.100200 -0.735800 10.755800 8.468548 -9.226011 0.500674 -84.054803 20.913111 45.731518 98.000595 -54.842811 -64.460554 -1.646730 1.075911 11.786650 38.056558 28.732123 20.827600 -7.125000 0.000000 0.000000 12.621300 63.194700 5.619300 -8.390042 7.596720 1.552045 76.762920 -23.631620 40.764835 -41.479328 50.749999 -17.411288 1.432413 -1.866018 -13.991746 -29.638861 -19.830408 9.902100 7.125000 0.000000 0.000000 -2.723300 -49.679900 0.314400 
-26.352124 17.218334 -5.557684 -96.018684 82.019575 -84.902557 16.602443 2.677782 -3.158299 -20.573849 2.573544 -17.929283 6.913504 20.252917 66.711678 3.096759 -6.384213 -16.266387 4.874400 -13.240900 -40.277000 -19.917470 -2.852497 -3.762727 48.725605 9.886579 -14.171728 10.841063 -13.537363 25.985304 -1.265947 6.730828 -15.753672 -0.287100 3.445800 -9.522400 13.061846 -1.099412 17.799888 1.100130 2.051960 -5.269724 -4.443889 -0.410761 -18.693104 -2.135910 -0.617258 -20.844909 -0.214346 -0.534977 10.075599 -2.187200 -0.761400 11.138000 8.341242 -9.395758 0.632862 -85.338950 25.643584 43.521771 99.725878 -54.495463 -66.249736 -1.670588 0.977604 11.486963 36.080876 29.941327 20.347500 -7.125000 0.000000 0.000000 9.708200 64.166700 4.528500 -8.228150 7.667172 1.356743 75.774305 -21.944013 40.090719 -46.118185 52.798917 -20.447277 1.558721 -1.797122 -13.702344 -28.765520 -20.566037 10.037000 7.125000 0.000000 0.000000 -1.892900 -50.423700 0.253100 
-25.534256 17.277184 -5.572759 -96.092884 83.003489 -85.356814 16.641720 1.840582 -3.524055 -20.906896 0.462553 -21.592641 6.678074 21.201413 65.314559 4.196442 -12.670157 -15.701284 3.918000 -12.050500 -35.910800 -19.688919 -3.191487 -3.658342 47.845770 7.868643 -10.727786 10.617184 -12.621407 25.521454 -1.452245 7.806234 -16.187650 -0.293800 3.485200 -9.632700 11.277839 -0.669416 18.312476 1.154715 2.275528 -5.252067 -3.393021 -0.076385 -18.818415 -2.566957 -0.927845 -20.646703 -0.315044 -0.863688 9.859124 -2.260100 -0.953300 10.961800 8.352666 -9.399914 0.800878 -86.609146 29.046606 41.588661 102.409954 -54.020950 -68.953711 -1.666772 0.924796 9.866527 36.105895 28.983889 19.784700 -7.125000 0.000000 0.000000 9.825400 63.127400 4.344900 -8.229519 7.653016 1.209578 75.017371 -19.581453 38.551059 -51.716095 54.908250 -24.427878 1.654244 -1.745242 -14.823456 -29.425942 -20.309697 10.172300 7.125000 0.000000 0.000000 -2.664700 -50.235100 0.344100 
-24.687354 17.350662 -5.579794 -97.994996 83.624701 -87.929744 16.762923 1.111636 -3.865015 -20.833071 -1.829566 -24.505309 6.091176 21.898371 63.108495 4.555405 -20.029237 -12.960567 2.610300 -10.035700 -29.092500 -19.749528 -3.622137 -3.554364 47.658803 6.745742 -6.665702 10.534844 -11.756125 25.125290 -1.656515 8.021568 -17.228609 -0.319000 3.630500 -10.039300 9.753395 -0.283505 18.761020 1.231677 2.467723 -5.181595 -2.372502 0.232421 -18.707916 -2.867543 -1.369431 -20.482963 -0.331061 -1.408076 9.775735 -2.341200 -1.215200 10.870400 8.359013 -9.368437 0.982671 -87.613842 32.062490 40.148900 104.141446 -53.706439 -70.700581 -1.671420 0.882467 8.731988 36.606132 28.585714 19.861500 -7.125000 0.000000 0.000000 10.533600 62.822400 4.586100 -8.247245 7.622250 1.057894 74.351209 -17.324977 37.291896 -58.003992 56.681202 -29.048892 1.735120 -1.720472 -15.766347 -30.316408 -19.395857 10.001700 7.125000 0.000000 0.000000 -3.719100 -49.310000 0.395800 
-23.815215 17.438658 -5.570302 -103.743802 84.176326 -94.234152 16.828980 0.398663 -4.163748 -20.493468 -4.555905 -26.860374 4.654017 22.302296 59.269629 4.136313 -25.775441 -9.071470 1.973600 -8.810800 -25.205200 -20.088731 -4.107756 -3.463304 47.949980 6.364521 -2.018882 10.769128 -10.620470 23.980455 -1.784795 7.378636 -18.244150 -0.429500 4.206100 -11.657100 8.114461 0.087864 18.752069 1.323558 2.546692 -5.119447 -1.220557 0.507224 -18.413061 -3.313479 -1.896102 -20.236085 -0.114899 -2.005300 9.834138 -2.264800 -1.480600 10.849000 8.339797 -9.296368 1.150357 -88.229766 34.653264 39.266755 104.698461 -53.624036 -71.241951 -1.658471 0.915447 7.213740 37.745995 26.860283 19.419700 -7.125000 0.000000 0.000000 12.146400 61.060300 4.792500 -8.284336 7.581554 0.906995 73.638677 -15.499930 36.306700 -64.482387 57.908551 -34.103116 1.837960 -1.633802 -16.586588 -32.147394 -20.238206 11.233100 7.125000 0.000000 0.000000 -5.608500 -50.557200 0.770200 
-22.908234 17.542734 -5.558130 -113.540251 84.468589 -104.564590 16.694849 -0.264435 -4.341983 -19.988494 -7.298144 -28.658936 2.122583 22.097299 53.143696 3.409445 -29.489773 -4.308610 1.945000 -8.750700 -25.018400 -20.751265 -4.603242 -3.468823 48.795486 6.190092 3.396620 11.390300 -9.003561 21.675931 -1.738678 5.776631 -18.713012 -0.531900 4.673300 -12.979000 6.738299 0.374618 18.373568 1.413590 2.523603 -5.057164 -0.206413 0.693651 -17.922691 -3.894304 -2.482834 -19.868202 0.150143 -2.637146 9.980118 -2.121000 -1.762200 10.852100 8.311057 -9.213762 1.292047 -88.437392 36.976403 38.715885 105.352335 -53.506755 -71.972324 -1.685245 0.828863 6.779004 39.104211 28.143426 21.181200 -7.125000 0.000000 0.000000 14.012700 62.938200 6.166300 -8.323245 7.527532 0.768150 72.821546 -14.234000 35.751169 -70.802628 58.472593 -39.071278 1.896161 -1.625725 -16.317533 -32.365012 -19.136852 10.668600 7.125000 0.000000 0.000000 -5.968100 -49.327100 0.638900 
-21.966190 17.656302 -5.562151 -122.153557 84.510525 -113.520189 16.464924 -0.830068 -4.354098 -19.146386 -10.227546 -29.746440 -1.139407 21.063391 45.376944 2.534401 -31.948591 1.554370 2.424400 -9.699100 -28.007800 -21.525794 -4.943969 -3.625924 49.939199 6.046850 8.885246 12.228850 -7.242903 18.921404 -1.517845 2.301437 -18.612877 -0.974700 6.285100 -17.613900 5.823069 0.667883 17.436209 1.459432 2.556418 -4.992324 0.465038 0.859995 -17.150824 -4.624008 -3.061518 -19.340491 0.392769 -3.226836 10.089453 -1.920600 -2.041600 10.783400 8.280582 -9.104819 1.403834 -88.207908 38.875685 38.508470 105.281113 -53.548998 -71.967777 -1.683624 0.814288 6.606279 39.721955 28.283069 21.685900 -7.125000 0.000000 0.000000 14.891200 63.262000 6.674800 -8.372631 7.451314 0.649337 71.902557 -13.485904 35.610815 -77.119390 58.530865 -44.214221 1.955433 -1.601248 -15.420623 -31.595286 -18.526264 10.069200 7.125000 0.000000 0.000000 -5.320100 -48.569300 0.469600 
-21.012196 17.778915 -5.587165 -132.067569 84.707910 -123.537919 16.142418 -1.337887 -4.122414 -18.265223 -13.703451 -30.465613 -4.769452 19.250350 36.758051 1.714509 -31.594411 8.952950 3.466200 -11.414000 -33.689000 -22.250209 -5.082779 -3.896393 50.466566 5.357096 13.436138 12.861670 -5.814319 16.815547 -1.113971 -1.225568 -17.033028 -1.049100 6.513300 -18.281300 4.807483 0.895566 16.904408 1.453609 2.608358 -5.144980 0.912375 1.026477 -17.457099 -5.376221 -3.568817 -18.917401 0.748390 -3.624110 10.735746 -1.598900 -2.209300 11.173000 8.143639 -9.028839 1.442652 -87.769900 40.772047 38.724147 104.372990 -53.675906 -71.199856 -1.695924 0.738058 6.550783 41.213809 29.950911 23.885300 -7.125000 0.000000 0.000000 17.256700 65.615300 8.708900 -8.347192 7.506945 0.532065 70.965849 -14.034945 36.435602 -82.362748 58.196906 -48.673594 1.928672 -1.663375 -12.901288 -32.054541 -16.920445 9.270800 7.125000 0.000000 0.000000 -5.891900 -46.805900 0.263500 
